<svg width="301" height="226" viewBox="0 0 301 226" fill="none" xmlns="http://www.w3.org/2000/svg">
<path d="M278.004 214.643C263.975 214.643 255.654 207.464 255.017 197.123H268.432C268.432 200.57 270.342 205.159 278.641 205.444C284.393 205.444 287.577 201.997 287.577 199.407C286.94 195.389 281.825 195.104 276.731 194.225C270.979 193.391 266.522 192.227 263.316 190.8C258.86 188.495 256.291 183.599 256.291 178.44C256.291 169.241 263.975 162.061 277.368 162.061C290.145 162.061 298.444 168.67 299.059 178.725H286.303C286.303 176.156 285.667 171.831 278.004 171.831C272.889 171.831 269.705 172.687 269.069 176.42C269.069 181.601 279.914 181.316 288.213 183.314C295.876 185.334 300.991 190.208 300.991 197.123C300.991 209.769 290.782 214.643 278.004 214.643" fill="white"/>
<path d="M33.5605 129.799L77.6023 104.221L101.226 144.75H41.8595" fill="white"/>
<path d="M126.173 213.118V161.963Z" fill="white"/>
<path d="M126.173 213.118V161.963" stroke="white" stroke-width="12.8875"/>
<path d="M13.1192 188.299C13.1192 196.334 20.1448 202.943 27.7851 202.943C36.106 202.943 42.473 196.334 42.473 188.299C42.473 180.548 36.106 173.655 27.7851 173.655C20.1448 173.655 13.1192 180.548 13.1192 188.299V188.299ZM27.1484 214.732C13.1192 214.732 1 202.943 1 188.299C1 173.655 13.1192 162.15 27.1484 162.15C32.9006 162.15 38.0161 163.599 42.473 166.739V162.721H55.2508V213.569H42.473V210.407C38.6528 213.283 32.9006 214.732 27.1484 214.732" fill="white"/>
<path d="M197.612 144.739L136.336 37.8628L180.377 12L256.978 144.739" fill="white"/>
<path d="M71.8483 188.299C71.8483 196.334 78.2372 202.943 86.5362 202.943C94.1765 202.943 101.224 196.334 101.224 188.299C101.224 180.548 94.1765 173.655 86.5362 173.655C78.2372 173.655 71.8483 180.548 71.8483 188.299ZM85.8995 214.732C71.2116 214.732 59.7291 202.943 59.7291 188.299C59.7291 173.655 71.2116 162.15 85.8995 162.15C91.6297 162.15 96.7453 163.599 101.224 166.739V145.201H113.98V213.569H101.224V210.407C96.7453 213.283 91.6297 214.732 85.8995 214.732" fill="white"/>
<path d="M85.2701 84.1178L129.949 58.8476L179.106 144.736H132.495V157.382H119.739V144.736" fill="white"/>
<path d="M292.714 157.78C289.509 157.78 286.325 154.904 286.325 151.457C286.325 148.01 289.509 145.134 292.714 145.134C296.534 145.134 299.103 148.01 299.103 151.457C299.103 154.904 296.534 157.78 292.714 157.78ZM292.714 146.012C289.509 146.012 287.599 148.581 287.599 151.457C287.599 154.333 289.509 156.924 292.714 156.924C295.898 156.924 297.808 154.333 297.808 151.457C297.808 148.581 295.898 146.012 292.714 146.012Z" fill="white"/>
<path d="M294.031 154.927L292.758 152.051H291.484V154.927H290.518V148.033H293.395C294.031 148.033 295.305 148.911 295.305 150.053C295.305 151.194 294.668 151.765 294.031 152.051L295.305 154.927H294.031ZM292.758 148.911H291.484V151.194H292.758C294.031 151.194 294.031 150.909 294.031 150.053C294.031 149.46 294.031 148.911 292.758 148.911" fill="white"/>
<path d="M208.408 188.299C208.408 196.334 214.797 202.943 223.096 202.943C230.758 202.943 237.761 196.334 237.761 188.299C237.761 180.548 230.758 173.655 223.096 173.655C214.797 173.655 208.408 180.548 208.408 188.299V188.299ZM222.437 214.732C207.771 214.732 196.288 202.943 196.288 188.299C196.288 173.655 207.771 162.15 222.437 162.15C228.189 162.15 233.305 163.599 237.761 166.739V162.721H249.903V213.569H237.761V210.407C233.305 213.283 228.189 214.732 222.437 214.732" fill="white"/>
<path d="M149.722 188.299C149.722 196.334 156.748 202.943 164.41 202.943C172.709 202.943 179.098 196.334 179.098 188.299C179.098 180.548 172.709 173.655 164.41 173.655C156.748 173.655 149.722 180.548 149.722 188.299ZM179.098 145.201H191.854V213.569H179.098V210.407C175.256 213.283 170.14 214.732 164.41 214.732C149.722 214.732 137.603 202.943 137.603 188.299C137.603 173.655 149.722 162.15 164.41 162.15C170.14 162.15 175.256 163.599 179.098 166.739V145.201Z" fill="white"/>
</svg>
