<svg width="244" height="227" viewBox="0 0 244 227" fill="none" xmlns="http://www.w3.org/2000/svg">
<path d="M132.061 15.4551C131.967 14.9611 131.906 14.4501 131.871 13.9321C131.372 6.75806 136.772 0.537058 143.946 0.0320577C151.127 -0.467942 157.344 4.94006 157.845 12.1141C158.345 19.2881 152.945 25.5101 145.772 26.0151C145.318 26.0491 144.87 26.0561 144.427 26.0381C144.137 26.1131 143.962 26.1481 143.712 26.3691C142.975 27.5201 145.591 27.3051 143.813 32.3341C143.813 32.3341 143.799 32.8861 143.603 33.4381C143.462 35.3681 142.719 41.0891 142.615 44.1351C142.993 44.5771 143.097 44.7921 143.057 45.8621C142.887 47.3101 142.556 50.8571 142.022 53.1301C141.57 55.0781 140.774 55.4491 140.133 55.9261C139.232 59.9611 138.993 63.3041 136.68 68.2051C136.47 71.9201 136.209 72.9321 135.429 74.7461C135.342 80.2161 135.72 81.0311 132.031 89.6931C131.078 93.7441 131.984 96.5471 132.99 100.756C134.018 105.082 136.873 106.889 137.298 111.319C138.298 121.753 138.047 128.857 135.809 137.037L137.763 141.664C140.188 142.775 146.204 145.816 142.867 150.629C147.565 153.1 154.664 155.722 160.517 160.729C162.871 162.69 165.36 164.829 167.591 167.338C171.841 168 171.387 168.338 174.538 170.274C183.799 175.955 198.653 187.219 207.264 195.196C208.746 196.063 209.352 196.686 210.548 197.313C210.736 197.672 210.786 197.754 210.746 197.852C210.334 198.895 210.35 198.923 209.977 199.753C210.443 200.268 211.307 200.747 211.826 201.195C212.308 201.346 212.308 201.115 213.14 200.911C214.22 201.923 215.558 202.738 216.039 202.689C217.505 202.318 217.255 202.622 218.493 201.236C218.939 200.777 219.684 201.243 219.684 201.243C220.15 200.697 221.149 199.607 222.482 198.822C223.545 198.195 225.575 198.127 225.575 198.127C226.255 198.133 226.127 198.83 226.068 199.057C225.3 199.453 223.672 199.889 222.759 200.563C220.771 202.621 219.212 205.395 219.212 205.395C223.217 204.847 225.678 205.841 229.015 205.458C230.834 205.354 232.178 205.471 234.089 204.088C234.089 204.088 235.927 202.779 237.572 202.087C239.171 201.389 240.687 201.761 242.094 202.784C243.087 203.904 243.686 203.911 242.175 205.494C241.629 206.109 240.837 206.796 239.831 207.79C238.063 209.535 235.685 211.863 233.221 213.79C230.728 215.736 227.897 217.486 226.128 218.289C221.67 221.493 222.723 220.654 219.217 223.83C218.775 224.226 217.6 224.934 217.031 225.312C215.647 226.218 215.217 225.462 214.314 223.799C214.314 223.799 213.902 223.178 213.221 221.853C212.477 220.406 211.918 218.749 212.145 218.777C211.314 218.673 207.576 214.289 207.566 213.347C206.774 213.166 203.402 209.9 203.281 209.277L200.293 206.881C196.875 207.591 196.09 205.469 187.063 199.062C186.034 199.044 184.442 198.488 182.162 196.796C178.087 193.532 168.313 186.15 166.657 185.306C164.877 184.402 162.751 183.545 161.447 182.469C159.493 182.111 158.425 181.906 157.448 181.633C156.448 181.361 155.541 181.005 153.01 180.667C148.896 180.155 144.626 178.452 140.564 176.418C138.639 175.506 136.964 175.041 135.308 174.33C131.593 172.761 128.409 171.349 125.94 170.776C124.999 170.684 120.522 169.34 118.172 167.969C117.359 167.549 116.887 167.149 116.353 167.028C115.121 166.744 114.329 167.231 113.772 167.419C110.76 168.987 107.941 170.343 105.334 171.744C102.91 173.041 100.677 174.388 98.3125 175.75C96.1765 176.981 93.7115 178.146 91.1775 179.354C91.1775 179.354 83.9495 182.975 80.0035 184.382C76.5785 187.178 69.5785 192.016 65.3065 194.41C63.1915 195.416 59.0795 198.019 57.1835 198.601C56.1035 199.472 52.2475 202.222 49.2315 204.491C46.9005 206.234 45.1375 207.706 45.1375 207.706C43.7835 208.92 43.8755 209.496 41.3005 208.402C40.5855 208.988 40.0335 209.355 39.5735 209.693C37.7145 211.042 37.5545 210.715 36.8765 210.679C35.5795 211.802 35.4175 211.222 34.2835 212.512C33.5385 213.664 34.3005 213.39 32.7305 213.95C32.3985 214.078 32.2415 214.476 31.9865 214.7C30.7235 215.738 30.7185 218.676 27.6965 218.886C25.9465 220.135 26.3935 221.643 25.0555 221.577C25.1375 222.873 22.6905 224.764 22.2485 224.757C18.3935 226.088 18.1255 223.253 13.4975 225.367C12.8985 225.64 12.0205 226.398 10.8645 226.618C8.83053 227.002 6.37053 226.599 4.87053 225.437C2.50953 223.618 0.335534 220.105 0.335534 220.105C-0.414466 218.333 0.0225337 217.209 2.36353 215.535C3.34053 214.914 3.52053 214.449 5.16053 214.338C5.97453 214.029 5.75253 214.501 7.20653 213.979C8.04953 213.676 8.04953 213.893 9.74653 213.748C10.1365 213.485 10.6825 213.394 11.4155 213.155C12.7585 212.713 14.0675 212.217 14.0675 212.217C14.0675 212.217 14.4095 211.874 15.7005 211.996C16.7935 211.549 17.9165 210.885 18.4925 210.682C18.3465 208.952 18.5325 209.033 19.3345 208.334C20.3345 207.473 20.5145 207.611 21.2595 208.146C21.5735 207.964 21.7255 207.902 21.6905 207.64C21.5675 206.738 20.7945 206.314 21.0285 204.327C20.6845 203.529 20.1775 202.549 20.2895 201.955C20.4525 201.314 20.6095 201.007 20.9985 200.803C21.4125 200.583 21.5455 200.88 21.7665 201.128C22.1625 201.588 22.4825 202.949 22.4825 202.949C22.6215 204.484 23.0975 206.472 24.6155 205.349C25.5105 204.441 25.6835 202.025 27.5095 202.541L28.8135 203.673C29.9175 202.634 29.9695 202.634 30.6325 202.215C30.6325 202.215 29.5975 201.169 30.5045 200.355C31.1265 199.802 31.8765 199.408 33.2085 197.931C36.8655 193.89 38.7425 192.105 42.6965 188.849C50.5855 182.361 59.5625 177.81 65.2645 175.546C67.1245 173.187 68.9335 171.616 73.0615 171.22C77.9665 162.935 87.3625 155.535 89.5205 154.357C91.2755 151.175 92.0375 151.513 94.3335 150.876C96.1525 149.417 96.5645 149.417 97.3805 147.895C98.1705 144.749 95.5555 136.349 102.235 135.923C103.653 133.918 103.298 134.4 104.88 132.505C103.812 129.864 103.369 127.657 103.079 125.755C103.026 125.534 100.428 123.702 101.165 121.314C100.061 120.001 97.9965 116.933 97.3515 115.499C97.0555 115.505 96.8105 115.395 96.4865 115.35C96.1495 115.295 95.7305 115.315 95.2575 115.274C94.2175 117.96 93.0845 118.158 91.2365 118.751C87.9335 125.788 86.7715 128.767 77.4285 134.585C73.7195 138.737 72.5325 143.363 72.5505 143.295C71.9115 144.666 72.1375 146.586 72.4755 147.613C71.9875 149.136 72.1155 149.289 72.1155 149.289C72.3195 149.863 72.8475 150.626 73.4995 150.788C74.6215 151.085 75.7445 151.038 75.6785 152.288C75.5295 153.851 73.4755 153.596 72.5045 153.422C68.7665 152.828 69.9475 150.393 67.5575 151.205C65.7265 152.402 65.0395 155.937 62.0525 155.478C61.6565 155.216 61.7795 154.443 62.0455 153.885C62.4645 153.012 63.2095 152.291 62.7675 151.965C60.8265 152.576 56.9295 153.867 56.9295 153.867C55.0985 154.366 53.0925 153.453 54.8945 152.249C55.7335 151.924 56.9295 151.517 58.4075 150.569C58.4075 150.569 59.1685 149.534 57.7105 150.051C56.1165 150.62 53.7675 150.975 52.0825 150.789C52.0825 150.789 48.5885 150.33 48.1415 150.057C47.6885 149.783 47.2755 148.703 48.3695 148.707C49.7535 148.721 53.2185 148.311 55.9045 147.598C57.2005 147.091 59.6655 145.632 61.0495 144.948C61.0495 144.948 62.5495 142.76 63.3755 142.332C64.7525 140.745 65.9155 139.81 67.1365 138.186C68.3285 135.727 69.5605 131.832 73.5085 125.803C75.3335 123.024 77.6015 119.785 80.4565 116.893C80.4565 116.893 81.1945 112.259 84.9095 108.962C85.7305 107.031 86.9725 104.759 88.2005 102.654C88.6775 101.846 89.1305 101.143 89.5845 100.375C90.7355 98.5671 91.9455 95.2011 96.4335 94.6721C96.4335 94.6721 98.3525 93.2541 99.0905 92.2461C100.242 91.2641 99.9795 89.7361 100.916 88.6591C99.4855 87.2641 95.8295 84.6421 95.4735 80.9971C95.0955 77.1311 96.4735 73.9511 98.8105 71.5971C101.406 69.0041 104.138 67.7081 107.457 67.9051C111.603 68.5211 112.387 69.8931 113.707 71.2541C114.974 72.5451 115.446 71.7141 115.979 73.2251C119.458 74.1501 119.264 73.7431 119.235 76.3011C119.769 77.0211 120.665 77.6911 120.653 79.1851C121.822 76.7601 122.052 76.3131 125.175 73.6441C125.914 71.4751 126.414 69.3421 127.066 67.1731C127.672 65.1681 128.428 63.1041 129.015 61.5511C128.393 57.1671 129.672 56.4411 131.375 52.5981C131.073 52.0691 131.138 51.9181 131.265 51.0511C131.928 48.5111 132.963 45.1511 133.578 42.9591C133.578 42.9591 133.782 42.0871 134.682 42.0221C135.461 39.2491 136.63 34.0861 136.828 33.0341C137.63 30.1341 137.112 29.2031 136.496 27.5691C136.3 27.0341 136.392 26.2731 136.05 25.6791C135.079 23.9881 134.032 21.7901 133.323 20.2201C132.863 19.2201 132.135 15.4521 132.135 15.4521C131.52 13.5311 132.061 15.4551 132.061 15.4551Z" fill="white"/>
</svg>
