<svg width="244" height="227" viewBox="0 0 244 227" fill="none" xmlns="http://www.w3.org/2000/svg">
<path fill-rule="evenodd" clip-rule="evenodd" d="M31.2551 72.9022C15.3775 91.5874 0.153893 114.759 0.00123937 132.078C-0.0582154 138.595 2.01788 144.284 6.99761 148.593C14.1643 154.799 22.0605 156.987 29.9182 157C41.401 157.016 52.8035 152.374 61.7313 148.794C76.7669 142.769 242.972 70.4418 242.972 70.4418C244.575 69.6367 244.275 68.6335 242.268 69.1343C241.458 69.3372 61.328 118.254 61.328 118.254C57.916 119.221 54.3904 119.727 50.8447 119.758C37.0014 119.841 24.683 112.14 24.7826 95.9141C24.8212 89.5649 26.7607 81.9083 31.2551 72.9022V72.9022Z" fill="white"/>
</svg>
