<svg width="244" height="227" viewBox="0 0 244 227" fill="none" xmlns="http://www.w3.org/2000/svg">
<path d="M113.662 90.7471C113.649 91.0201 113.624 91.2186 113.624 91.4171C113.624 96.876 113.637 102.335 113.612 107.794C113.612 108.389 113.798 108.501 114.344 108.501C122.011 108.488 129.691 108.488 137.358 108.488C138.487 108.488 139.107 109.121 139.107 110.275C139.107 112.756 139.107 115.238 139.107 117.719C139.107 118.55 138.388 119.27 137.557 119.27C129.864 119.27 122.172 119.27 114.48 119.27C114.22 119.27 113.959 119.27 113.662 119.27C113.662 125.212 113.662 131.068 113.662 137.011C113.922 137.011 114.17 137.011 114.406 137.011C122.756 137.011 131.118 137.011 139.467 137.011C140.497 137.011 141.179 137.681 141.179 138.711C141.179 141.217 141.179 143.711 141.179 146.217C141.179 146.961 140.472 147.705 139.728 147.755C139.542 147.768 139.355 147.768 139.169 147.768C127.606 147.768 116.056 147.768 104.493 147.768C103.252 147.768 102.669 147.184 102.669 145.931C102.669 124.53 102.669 103.129 102.669 81.7276C102.669 80.6606 103.327 80.0031 104.419 80.0031C116.081 80.0031 127.743 80.0031 139.405 80.0031C140.497 80.0031 141.179 80.6855 141.179 81.7896C141.179 84.2337 141.179 86.6654 141.179 89.1095C141.179 90.1144 140.522 90.7596 139.492 90.7596C131.155 90.7596 122.83 90.7596 114.493 90.7596C114.245 90.7471 113.997 90.7471 113.662 90.7471Z" fill="white"/>
<path d="M64.7302 90.7471C64.7302 96.6899 64.7302 102.533 64.7302 108.488C65.0032 108.488 65.2637 108.488 65.5243 108.488C73.1915 108.488 80.8587 108.488 88.5384 108.488C89.5185 108.488 90.176 109.146 90.176 110.126C90.176 112.645 90.176 115.176 90.176 117.694C90.176 118.587 89.4937 119.27 88.6128 119.27C80.9208 119.27 73.2287 119.27 65.5367 119.27C65.2885 119.27 65.0528 119.27 64.7675 119.27C64.7675 125.188 64.7675 131.044 64.7675 137.011C65.0156 137.011 65.2637 137.011 65.5243 137.011C73.8614 137.011 82.1862 137.011 90.5234 137.011C91.64 137.011 92.2851 137.656 92.2851 138.785C92.2851 141.266 92.2851 143.748 92.2851 146.229C92.2851 146.924 91.578 147.693 90.8708 147.755C90.7095 147.768 90.5358 147.768 90.3745 147.768C78.7744 147.768 67.1743 147.768 55.5742 147.768C55.1152 147.768 54.7058 147.755 54.3212 147.395C53.8869 146.986 53.7381 146.576 53.7381 145.993C53.7505 124.592 53.7505 103.203 53.7505 81.802C53.7505 80.6358 54.3832 80.0155 55.5618 80.0155C67.1867 80.0155 78.7992 80.0155 90.4241 80.0155C91.6028 80.0155 92.2727 80.6855 92.2727 81.8517C92.2727 84.2958 92.2727 86.7274 92.2727 89.1715C92.2727 90.0772 91.578 90.772 90.6475 90.772C82.546 90.772 74.4445 90.772 66.3307 90.772C65.8096 90.7471 65.3009 90.7471 64.7302 90.7471Z" fill="white"/>
<path d="M161.625 119.27C159.95 119.27 158.399 119.27 156.849 119.27C156.079 119.27 155.347 118.563 155.347 117.806C155.347 115.225 155.347 112.632 155.347 110.052C155.347 109.258 156.117 108.488 156.911 108.488C160.161 108.488 163.399 108.476 166.65 108.501C167.047 108.501 167.283 108.414 167.481 108.042C170.409 102.459 173.362 96.8884 176.302 91.3178C176.364 91.1938 176.414 91.0697 176.501 90.8588C176.178 90.8588 175.942 90.8588 175.707 90.8588C168.548 90.8588 161.402 90.8588 154.243 90.8588C153.201 90.8588 152.519 90.2013 152.519 89.1715C152.519 86.8143 152.519 84.457 152.519 82.0998C152.519 80.549 153.065 80.0031 154.603 80.0031C163.437 80.0031 172.258 80.0031 181.091 80.0031C183.262 80.0031 185.433 80.0031 187.604 80.0031C188.932 80.0031 189.515 80.5738 189.515 81.8765C189.515 83.9484 189.527 86.0079 189.503 88.0797C189.503 88.4519 189.403 88.8614 189.23 89.1963C185.979 95.3748 182.716 101.553 179.453 107.719C179.342 107.93 179.23 108.153 179.069 108.464C179.342 108.476 179.553 108.501 179.776 108.501C181.227 108.501 182.667 108.501 184.118 108.501C184.813 108.501 185.619 109.307 185.619 109.99C185.619 112.595 185.619 115.2 185.619 117.806C185.619 118.55 184.863 119.27 184.118 119.27C180.793 119.27 177.456 119.282 174.131 119.257C173.734 119.257 173.498 119.344 173.3 119.716C170.409 125.274 167.506 130.82 164.615 136.366C164.541 136.502 164.491 136.664 164.392 136.899C164.702 136.899 164.938 136.899 165.186 136.899C173.188 136.899 181.19 136.899 189.192 136.899C190.272 136.899 190.917 137.545 190.917 138.636C190.917 141.18 190.917 143.723 190.917 146.266C190.917 146.887 190.222 147.668 189.589 147.73C189.403 147.755 189.217 147.743 189.031 147.743C177.059 147.743 165.087 147.743 153.127 147.743C152.643 147.743 152.221 147.718 151.824 147.333C151.415 146.936 151.253 146.539 151.266 145.981C151.291 143.785 151.266 141.601 151.291 139.406C151.291 138.996 151.415 138.549 151.601 138.177C154.814 132.098 158.052 126.031 161.29 119.952C161.365 119.791 161.464 119.58 161.625 119.27Z" fill="white"/>
<path d="M22.4612 104.941C23.491 102.707 24.4587 100.598 25.4264 98.4768C28.0938 92.6706 30.7612 86.8768 33.4038 81.0705C33.7388 80.3385 34.2722 80.0035 35.0414 80.0035C37.9322 80.0035 40.8353 80.0035 43.726 80.0035C44.5945 80.0035 45.2892 81.1201 44.9294 81.9141C39.3713 94.1594 33.8008 106.405 28.2551 118.65C28.0814 119.047 27.9697 119.518 27.9697 119.953C27.9573 128.699 27.9573 137.446 27.9573 146.192C27.9573 147.11 27.3122 147.756 26.3817 147.768C23.8011 147.768 21.2082 147.768 18.6276 147.768C17.6723 147.768 17.0396 147.11 17.0396 146.143C17.0396 137.359 17.0396 128.575 17.0272 119.779C17.0272 119.345 16.9279 118.873 16.7542 118.476C11.2209 106.305 5.67521 94.147 0.129497 81.9886C-0.292325 81.0581 0.365221 80.0035 1.39496 80.0035C4.22365 80.0035 7.06474 80.0035 9.89343 80.0035C10.7743 80.0035 11.3822 80.3261 11.7668 81.1946C15.2034 88.9114 18.6772 96.6159 22.1511 104.32C22.2379 104.482 22.3248 104.643 22.4612 104.941Z" fill="white"/>
<path d="M221.437 104.94C221.834 104.084 222.181 103.327 222.529 102.558C225.816 95.3996 229.104 88.2534 232.367 81.0949C232.715 80.3381 233.26 80.0031 234.054 80.0031C236.933 80.0031 239.799 80.0031 242.677 80.0031C243.545 80.0031 244.265 81.1073 243.905 81.9013C238.359 94.1093 232.814 106.317 227.293 118.538C227.082 119.009 226.958 119.567 226.958 120.076C226.933 128.786 226.945 137.483 226.945 146.192C226.945 147.098 226.3 147.768 225.37 147.768C222.764 147.768 220.159 147.78 217.554 147.768C216.673 147.768 216.028 147.098 216.028 146.204C216.028 137.396 216.028 128.587 216.015 119.778C216.015 119.344 215.916 118.873 215.73 118.476C210.172 106.255 204.601 94.0349 199.018 81.8145C198.708 81.1445 199.415 80.0031 200.147 80.0031C203.125 80.0031 206.103 79.9907 209.08 80.0155C209.8 80.0155 210.346 80.3505 210.668 81.0577C214.142 88.8117 217.616 96.5534 221.102 104.295C221.214 104.481 221.301 104.655 221.437 104.94Z" fill="white"/>
</svg>
